<svg version="1.1" xmlns="http://www.w3.org/2000/svg" viewBox="0 0 1617.2444587620248 483.0060477559209" width="1617.2444587620248" height="483.0060477559209">
  <!-- svg-source:excalidraw -->
  
  <defs>
    <style class="style-fonts">
      @font-face {
        font-family: "Virgil";
        src: url("https://excalidraw.com/Virgil.woff2");
      }
      @font-face {
        font-family: "Cascadia";
        src: url("https://excalidraw.com/Cascadia.woff2");
      }
      @font-face {
        font-family: "Assistant";
        src: url("https://excalidraw.com/Assistant-Regular.woff2");
      }
    </style>
    <clipPath id="eJEOeEG-XMzsKO-W1F3pm">
            <rect transform="translate(0 0) rotate(0 808.6222293810124 241.50302387796046)" width="1617.244458762025" height="483.00604775592075">
          </rect>
        </clipPath>
  </defs>
  <rect x="0" y="0" width="1617.2444587620248" height="483.0060477559209" fill="#ffffff"></rect><g clip-path="url(#eJEOeEG-XMzsKO-W1F3pm)"><g transform="translate(1197.7631456603417 102.17151144330637) rotate(0 59.39706039428711 12.5)"><text x="0" y="17.52" font-family="Virgil, Segoe UI Emoji" font-size="20px" fill="#f783ac" text-anchor="start" style="white-space: pre;" direction="ltr" dominant-baseline="alphabetic">CANCELLED</text></g></g><g clip-path="url(#eJEOeEG-XMzsKO-W1F3pm)"><g transform="translate(74.67078405830625 103.69538167614564) rotate(0 20.735294342041016 12.5)"><text x="0" y="17.52" font-family="Virgil, Segoe UI Emoji" font-size="20px" fill="#1e1e1e" text-anchor="start" style="white-space: pre;" direction="ltr" dominant-baseline="alphabetic">NEW</text></g></g><g clip-path="url(#eJEOeEG-XMzsKO-W1F3pm)"><g transform="translate(179.81783012416918 150.93535889414102) rotate(0 46.17647171020508 12.5)"><text x="0" y="17.52" font-family="Virgil, Segoe UI Emoji" font-size="20px" fill="#2f9e44" text-anchor="start" style="white-space: pre;" direction="ltr" dominant-baseline="alphabetic">PROCESS</text></g></g><g clip-path="url(#eJEOeEG-XMzsKO-W1F3pm)"><g transform="translate(336.77646410654233 105.21925190898423) rotate(0 47.764705657958984 12.5)"><text x="0" y="17.52" font-family="Virgil, Segoe UI Emoji" font-size="20px" fill="#2f9e44" text-anchor="start" style="white-space: pre;" direction="ltr" dominant-baseline="alphabetic">BACKLOG</text></g></g><g clip-path="url(#eJEOeEG-XMzsKO-W1F3pm)"><g transform="translate(506.2768725083106 105.21925190898423) rotate(0 38.55882263183594 12.5)"><text x="0" y="17.52" font-family="Virgil, Segoe UI Emoji" font-size="20px" fill="#1971c2" text-anchor="start" style="white-space: pre;" direction="ltr" dominant-baseline="alphabetic">ACTIVE</text></g></g><g clip-path="url(#eJEOeEG-XMzsKO-W1F3pm)"><g transform="translate(657.3655148578327 105.21925190898423) rotate(0 29.014705657958984 12.5)"><text x="0" y="17.52" font-family="Virgil, Segoe UI Emoji" font-size="20px" fill="#1971c2" text-anchor="start" style="white-space: pre;" direction="ltr" dominant-baseline="alphabetic">TEST</text></g></g><g clip-path="url(#eJEOeEG-XMzsKO-W1F3pm)"><g transform="translate(789.365923259601 105.21925190898423) rotate(0 38.5 12.5)"><text x="0" y="17.52" font-family="Virgil, Segoe UI Emoji" font-size="20px" fill="#1971c2" text-anchor="start" style="white-space: pre;" direction="ltr" dominant-baseline="alphabetic">REVIEW</text></g></g><g clip-path="url(#eJEOeEG-XMzsKO-W1F3pm)"><g transform="translate(945.0773277835151 70.93217167011585) rotate(0 45.85293960571289 12.5)"><text x="0" y="17.52" font-family="Virgil, Segoe UI Emoji" font-size="20px" fill="#f08c00" text-anchor="start" style="white-space: pre;" direction="ltr" dominant-baseline="alphabetic">CHANGES</text></g></g><g clip-path="url(#eJEOeEG-XMzsKO-W1F3pm)"><g transform="translate(950.1342328240717 150.93535889414102) rotate(0 45.367645263671875 12.5)"><text x="0" y="17.52" font-family="Virgil, Segoe UI Emoji" font-size="20px" fill="#2f9e44" text-anchor="start" style="white-space: pre;" direction="ltr" dominant-baseline="alphabetic">REBASE </text></g></g><g clip-path="url(#eJEOeEG-XMzsKO-W1F3pm)"><g transform="translate(1106.3309316900259 105.21925190898423) rotate(0 33.39706039428711 12.5)"><text x="0" y="17.52" font-family="Virgil, Segoe UI Emoji" font-size="20px" fill="#2f9e44" text-anchor="start" style="white-space: pre;" direction="ltr" dominant-baseline="alphabetic">DONE </text></g></g><g clip-path="url(#eJEOeEG-XMzsKO-W1F3pm)"><g stroke-linecap="round"><g transform="translate(128.00624220765712 114.36247330601554) rotate(0 22.09611837615944 26.667729074675208)"><path d="M0.03 -1.02 C7.38 8.07, 36.03 44.63, 43.48 53.62 M-1.41 1.06 C6.39 9.84, 38.21 42.82, 45.82 51.65" stroke="#1e1e1e" stroke-width="2" fill="none"></path></g><g transform="translate(128.00624220765712 114.36247330601554) rotate(0 22.09611837615944 26.667729074675208)"><path d="M23.64 40.13 C27.35 41.8, 35.05 46.77, 45.82 51.65 M23.64 40.13 C28.6 43.53, 35.2 47.4, 45.82 51.65" stroke="#1e1e1e" stroke-width="2" fill="none"></path></g><g transform="translate(128.00624220765712 114.36247330601554) rotate(0 22.09611837615944 26.667729074675208)"><path d="M36.23 28.56 C36.74 33.11, 41.3 40.95, 45.82 51.65 M36.23 28.56 C37.74 34.95, 40.99 41.89, 45.82 51.65" stroke="#1e1e1e" stroke-width="2" fill="none"></path></g></g><mask></mask></g><g clip-path="url(#eJEOeEG-XMzsKO-W1F3pm)"><g stroke-linecap="round"><g transform="translate(284.96487619003074 161.6024505240116) rotate(0 19.810313026901667 -20.57224814332085)"><path d="M-0.38 0.26 C6.26 -6.55, 32.28 -33.58, 38.95 -40.51 M1.62 -0.64 C8.74 -7.83, 35.09 -35.73, 41.31 -42.3" stroke="#f783ac" stroke-width="2" fill="none"></path></g><g transform="translate(284.96487619003074 161.6024505240116) rotate(0 19.810313026901667 -20.57224814332085)"><path d="M31.37 -19.36 C33.95 -25.53, 36.76 -29.44, 41.31 -42.3 M31.37 -19.36 C34.96 -24.96, 37.9 -32.66, 41.31 -42.3" stroke="#f783ac" stroke-width="2" fill="none"></path></g><g transform="translate(284.96487619003074 161.6024505240116) rotate(0 19.810313026901667 -20.57224814332085)"><path d="M18.95 -31.11 C24.31 -34.64, 29.87 -35.95, 41.31 -42.3 M18.95 -31.11 C26 -33.3, 32.5 -37.63, 41.31 -42.3" stroke="#f783ac" stroke-width="2" fill="none"></path></g></g><mask></mask></g><g clip-path="url(#eJEOeEG-XMzsKO-W1F3pm)"><g stroke-linecap="round"><g transform="translate(205.7673641168958 138.82418293383944) rotate(0 -2.661872629856134 -21.3740762109436)"><path d="M0.06 0.08 C-0.78 -7, -4.56 -35.27, -5.4 -42.32 M-0.57 -0.35 C-1.46 -7.59, -5.1 -35.95, -5.88 -43.07" stroke="#f783ac" stroke-width="2" fill="none"></path></g><g transform="translate(205.7673641168958 138.82418293383944) rotate(0 -2.661872629856134 -21.3740762109436)"><path d="M3.85 -23.85 C1.72 -28.44, 0.1 -32.19, -5.88 -43.07 M3.85 -23.85 C-0.17 -31.78, -3.74 -38.58, -5.88 -43.07" stroke="#f783ac" stroke-width="2" fill="none"></path></g><g transform="translate(205.7673641168958 138.82418293383944) rotate(0 -2.661872629856134 -21.3740762109436)"><path d="M-10.78 -22.1 C-9.53 -27.09, -7.77 -31.26, -5.88 -43.07 M-10.78 -22.1 C-9.08 -30.71, -6.94 -38.2, -5.88 -43.07" stroke="#f783ac" stroke-width="2" fill="none"></path></g></g><mask></mask></g><g clip-path="url(#eJEOeEG-XMzsKO-W1F3pm)"><g stroke-linecap="round"><g transform="translate(235.66713552746205 98.1857678883539) rotate(0 -0.8013396873066085 19.517379455120704)"><path d="M0.43 0.38 C0.01 6.84, -1.84 32.58, -2.08 38.94 M-0.01 0.1 C-0.31 6.63, -0.91 33.13, -1.1 39.59" stroke="#1e1e1e" stroke-width="2" fill="none"></path></g><g transform="translate(235.66713552746205 98.1857678883539) rotate(0 -0.8013396873066085 19.517379455120704)"><path d="M-7.3 21.07 C-4.22 27.27, -2.7 36.16, -1.1 39.59 M-7.3 21.07 C-5.76 25.11, -5 29.3, -1.1 39.59" stroke="#1e1e1e" stroke-width="2" fill="none"></path></g><g transform="translate(235.66713552746205 98.1857678883539) rotate(0 -0.8013396873066085 19.517379455120704)"><path d="M6.05 21.41 C4.03 27.53, 0.45 36.29, -1.1 39.59 M6.05 21.41 C4.78 25.41, 2.73 29.52, -1.1 39.59" stroke="#1e1e1e" stroke-width="2" fill="none"></path></g></g><mask></mask></g><g clip-path="url(#eJEOeEG-XMzsKO-W1F3pm)"><g stroke-linecap="round"><g transform="translate(441.92351017240526 114.36247330601554) rotate(0 27.42966419109416 1.5238702328385898)"><path d="M1.04 -0.99 C10.39 -0.2, 46.52 3.51, 55.54 4.16 M0.12 1.1 C9.43 1.64, 45.88 2.12, 54.95 2.62" stroke="#1e1e1e" stroke-width="2" fill="none"></path></g><g transform="translate(441.92351017240526 114.36247330601554) rotate(0 27.42966419109416 1.5238702328385898)"><path d="M31.19 10.42 C35.54 9.39, 44.99 6.79, 54.95 2.62 M31.19 10.42 C38.85 7.66, 45.68 7.05, 54.95 2.62" stroke="#1e1e1e" stroke-width="2" fill="none"></path></g><g transform="translate(441.92351017240526 114.36247330601554) rotate(0 27.42966419109416 1.5238702328385898)"><path d="M31.74 -6.68 C35.86 -3.41, 45.18 -1.73, 54.95 2.62 M31.74 -6.68 C39.09 -4.53, 45.76 -0.25, 54.95 2.62" stroke="#1e1e1e" stroke-width="2" fill="none"></path></g></g><mask></mask></g><g clip-path="url(#eJEOeEG-XMzsKO-W1F3pm)"><g stroke-linecap="round"><g transform="translate(595.8344036891017 117.41021377169272) rotate(0 25.905793958256027 -1.5238702328385898)"><path d="M0.38 -0.11 C9.03 -0.63, 43.98 -1.94, 52.61 -2.6 M-0.88 -1.21 C7.62 -2.15, 43.34 -4.14, 52.09 -4.48" stroke="#1e1e1e" stroke-width="2" fill="none"></path></g><g transform="translate(595.8344036891017 117.41021377169272) rotate(0 25.905793958256027 -1.5238702328385898)"><path d="M29.04 5.22 C37.09 3, 46.29 -1.25, 52.09 -4.48 M29.04 5.22 C33.18 3.95, 39.44 0.88, 52.09 -4.48" stroke="#1e1e1e" stroke-width="2" fill="none"></path></g><g transform="translate(595.8344036891017 117.41021377169272) rotate(0 25.905793958256027 -1.5238702328385898)"><path d="M28.2 -11.86 C36.63 -7.95, 46.13 -6.08, 52.09 -4.48 M28.2 -11.86 C32.64 -9.4, 39.09 -8.73, 52.09 -4.48" stroke="#1e1e1e" stroke-width="2" fill="none"></path></g></g><mask></mask></g><g clip-path="url(#eJEOeEG-XMzsKO-W1F3pm)"><g stroke-linecap="round"><g transform="translate(879.2742669970776 115.88634353885413) rotate(0 32.00127488961016 23.619988608998028)"><path d="M-0.32 -0.35 C10.34 7.31, 53.63 38.16, 64.37 46.22 M1.71 -1.58 C12.21 6.17, 53.33 39.28, 63.62 47.22" stroke="#f783ac" stroke-width="2" fill="none"></path></g><g transform="translate(879.2742669970776 115.88634353885413) rotate(0 32.00127488961016 23.619988608998028)"><path d="M39.88 39.37 C47.25 42.68, 54.08 44.9, 63.62 47.22 M39.88 39.37 C48.94 41.7, 56.29 44.57, 63.62 47.22" stroke="#f783ac" stroke-width="2" fill="none"></path></g><g transform="translate(879.2742669970776 115.88634353885413) rotate(0 32.00127488961016 23.619988608998028)"><path d="M50.48 25.95 C54.34 33.72, 57.62 40.43, 63.62 47.22 M50.48 25.95 C55.7 33.05, 59.22 40.77, 63.62 47.22" stroke="#f783ac" stroke-width="2" fill="none"></path></g></g><mask></mask></g><g clip-path="url(#eJEOeEG-XMzsKO-W1F3pm)"><g stroke-linecap="round"><g transform="translate(882.3220074627552 116.13055383426376) rotate(0 25.14385884183639 -11.952692061172343)"><path d="M0.3 -0.61 C8.69 -4.88, 41.77 -20.5, 50.18 -24.51 M-1 1.68 C7.23 -1.92, 40.64 -19.05, 49.17 -23.29" stroke="#f783ac" stroke-width="2" fill="none"></path></g><g transform="translate(882.3220074627552 116.13055383426376) rotate(0 25.14385884183639 -11.952692061172343)"><path d="M32.05 -5.07 C35.8 -10.55, 40.74 -14.89, 49.17 -23.29 M32.05 -5.07 C35.13 -9.17, 41.11 -14.03, 49.17 -23.29" stroke="#f783ac" stroke-width="2" fill="none"></path></g><g transform="translate(882.3220074627552 116.13055383426376) rotate(0 25.14385884183639 -11.952692061172343)"><path d="M24.35 -20.34 C30.45 -21.44, 37.62 -21.38, 49.17 -23.29 M24.35 -20.34 C29.26 -20.76, 37.06 -22.01, 49.17 -23.29" stroke="#f783ac" stroke-width="2" fill="none"></path></g></g><mask></mask></g><g clip-path="url(#eJEOeEG-XMzsKO-W1F3pm)"><g stroke-linecap="round"><g transform="translate(885.3697479284319 117.41021377169272) rotate(0 108.9567216479586 0.7619351164192949)"><path d="M0.64 0.85 C36.91 1.21, 182.15 1.47, 218.18 1.46 M-0.48 0.25 C35.61 0.86, 180.77 2.71, 217.38 2.96" stroke="#f783ac" stroke-width="2" fill="none"></path></g><g transform="translate(885.3697479284319 117.41021377169272) rotate(0 108.9567216479586 0.7619351164192949)"><path d="M193.8 11.27 C203.48 8.7, 210.17 3.53, 217.38 2.96 M193.8 11.27 C199.13 8.26, 205.78 7.6, 217.38 2.96" stroke="#f783ac" stroke-width="2" fill="none"></path></g><g transform="translate(885.3697479284319 117.41021377169272) rotate(0 108.9567216479586 0.7619351164192949)"><path d="M193.97 -5.83 C203.49 -2.44, 210.13 -1.65, 217.38 2.96 M193.97 -5.83 C199.12 -4.76, 205.72 -1.33, 217.38 2.96" stroke="#f783ac" stroke-width="2" fill="none"></path></g></g><mask></mask></g><g clip-path="url(#eJEOeEG-XMzsKO-W1F3pm)"><g stroke-linecap="round"><g transform="translate(1048.4238628421604 158.55471005833442) rotate(0 26.66772907467498 -13.714832095547308)"><path d="M0.03 0.28 C9.08 -4.26, 45.39 -21.76, 54.26 -26.4 M-1.41 -0.62 C7.56 -5.55, 44.83 -23.69, 53.79 -27.98" stroke="#f783ac" stroke-width="2" fill="none"></path></g><g transform="translate(1048.4238628421604 158.55471005833442) rotate(0 26.66772907467498 -13.714832095547308)"><path d="M36.37 -10.04 C41.94 -13.89, 48.42 -21.01, 53.79 -27.98 M36.37 -10.04 C40.91 -14.62, 46.74 -20.84, 53.79 -27.98" stroke="#f783ac" stroke-width="2" fill="none"></path></g><g transform="translate(1048.4238628421604 158.55471005833442) rotate(0 26.66772907467498 -13.714832095547308)"><path d="M28.92 -25.43 C36.83 -24.67, 45.54 -27.17, 53.79 -27.98 M28.92 -25.43 C35.68 -25.63, 43.66 -27.4, 53.79 -27.98" stroke="#f783ac" stroke-width="2" fill="none"></path></g></g><mask></mask></g><g clip-path="url(#eJEOeEG-XMzsKO-W1F3pm)"><g stroke-linecap="round"><g transform="translate(929.780866520242 74.59901145301683) rotate(0 -28.29330389907159 12.918731898242186)"><path d="M-0.22 -0.29 C-9.93 4.1, -48.07 21.39, -57.52 25.61 M-1.79 -1.48 C-11.19 3.15, -45.95 22.46, -55.3 27.03" stroke="#1e1e1e" stroke-width="2" fill="none"></path></g><g transform="translate(929.780866520242 74.59901145301683) rotate(0 -28.29330389907159 12.918731898242186)"><path d="M-38.48 8.54 C-45.14 13.63, -51.12 21.27, -55.3 27.03 M-38.48 8.54 C-42.5 13.72, -47.09 17.78, -55.3 27.03" stroke="#1e1e1e" stroke-width="2" fill="none"></path></g><g transform="translate(929.780866520242 74.59901145301683) rotate(0 -28.29330389907159 12.918731898242186)"><path d="M-30.53 23.68 C-39.98 23.28, -48.82 25.46, -55.3 27.03 M-30.53 23.68 C-36.32 25.29, -42.78 25.79, -55.3 27.03" stroke="#1e1e1e" stroke-width="2" fill="none"></path></g></g><mask></mask></g><g clip-path="url(#eJEOeEG-XMzsKO-W1F3pm)"><g stroke-linecap="round"><g transform="translate(1436.5766228688408 164.99334392137234) rotate(0 57.85843508130006 -1.5238702328382487)"><path d="M0 0 C35.32 -2.67, 72.93 -1.41, 115.72 -3.05 M0 0 C32.74 -0.16, 67.92 -1.58, 115.72 -3.05" stroke="#1e1e1e" stroke-width="2" fill="none"></path></g><g transform="translate(1436.5766228688408 164.99334392137234) rotate(0 57.85843508130006 -1.5238702328382487)"><path d="M92.51 6.25 C98.79 1.61, 107.36 0.9, 115.72 -3.05 M92.51 6.25 C98.35 4.11, 106.63 0.87, 115.72 -3.05" stroke="#1e1e1e" stroke-width="2" fill="none"></path></g><g transform="translate(1436.5766228688408 164.99334392137234) rotate(0 57.85843508130006 -1.5238702328382487)"><path d="M91.96 -10.84 C98.4 -10.11, 107.14 -5.45, 115.72 -3.05 M91.96 -10.84 C97.97 -8.02, 106.41 -6.28, 115.72 -3.05" stroke="#1e1e1e" stroke-width="2" fill="none"></path></g></g><mask></mask></g><g clip-path="url(#eJEOeEG-XMzsKO-W1F3pm)"><g transform="translate(1401.4303399804212 137.01593926460123) rotate(0 54.45588302612305 10)"><text x="0" y="14.016" font-family="Virgil, Segoe UI Emoji" font-size="16px" fill="#1e1e1e" text-anchor="start" style="white-space: pre;" direction="ltr" dominant-baseline="alphabetic">author action</text></g></g><g clip-path="url(#eJEOeEG-XMzsKO-W1F3pm)"><g transform="translate(449.0114444563078 203.44815323491594) rotate(0 558.8235473632812 137.5)"><text x="0" y="17.52" font-family="Virgil, Segoe UI Emoji" font-size="20px" fill="#1e1e1e" text-anchor="start" style="white-space: pre;" direction="ltr" dominant-baseline="alphabetic">New issues are automatically set to NEW. </text><text x="0" y="42.519999999999996" font-family="Virgil, Segoe UI Emoji" font-size="20px" fill="#1e1e1e" text-anchor="start" style="white-space: pre;" direction="ltr" dominant-baseline="alphabetic">Once properly filled, author must set it to ready to PROCESS.</text><text x="0" y="67.52" font-family="Virgil, Segoe UI Emoji" font-size="20px" fill="#1e1e1e" text-anchor="start" style="white-space: pre;" direction="ltr" dominant-baseline="alphabetic">Then maintainers can either add it to the main BACKLOG.</text><text x="0" y="92.52" font-family="Virgil, Segoe UI Emoji" font-size="20px" fill="#1e1e1e" text-anchor="start" style="white-space: pre;" direction="ltr" dominant-baseline="alphabetic">Note that to be added to the BACKLOG, maintainers must compute priority using the scoring system.</text><text x="0" y="117.52" font-family="Virgil, Segoe UI Emoji" font-size="20px" fill="#1e1e1e" text-anchor="start" style="white-space: pre;" direction="ltr" dominant-baseline="alphabetic">At any time a BACKLOG issue can be picked to be implemented: ACTIVE.</text><text x="0" y="142.52" font-family="Virgil, Segoe UI Emoji" font-size="20px" fill="#1e1e1e" text-anchor="start" style="white-space: pre;" direction="ltr" dominant-baseline="alphabetic">Once confident enough with implementation and unit/integration tests, author should set it to TEST.</text><text x="0" y="167.52" font-family="Virgil, Segoe UI Emoji" font-size="20px" fill="#1e1e1e" text-anchor="start" style="white-space: pre;" direction="ltr" dominant-baseline="alphabetic">Any maintainer will have to thoroughly perform real world usage testing before updating the status to REVIEW.</text><text x="0" y="192.52" font-family="Virgil, Segoe UI Emoji" font-size="20px" fill="#1e1e1e" text-anchor="start" style="white-space: pre;" direction="ltr" dominant-baseline="alphabetic">Code REVIEW is again performed by a maintainer.</text><text x="0" y="217.52" font-family="Virgil, Segoe UI Emoji" font-size="20px" fill="#1e1e1e" text-anchor="start" style="white-space: pre;" direction="ltr" dominant-baseline="alphabetic">He can require CHANGES or validate and request a REBASE if needed, or directly merge the issue (DONE).</text><text x="0" y="242.52" font-family="Virgil, Segoe UI Emoji" font-size="20px" fill="#1e1e1e" text-anchor="start" style="white-space: pre;" direction="ltr" dominant-baseline="alphabetic">Note that at any point an issue can be CANCELLED.</text><text x="0" y="267.52" font-family="Virgil, Segoe UI Emoji" font-size="20px" fill="#1e1e1e" text-anchor="start" style="white-space: pre;" direction="ltr" dominant-baseline="alphabetic"></text></g></g><g clip-path="url(#eJEOeEG-XMzsKO-W1F3pm)"><g transform="translate(48.23357321976118 270.8074816171056) rotate(0 164.9264678955078 45)"><text x="164.9264678955078" y="31.536" font-family="Virgil, Segoe UI Emoji" font-size="36px" fill="#6741d9" text-anchor="middle" style="white-space: pre;" direction="ltr" dominant-baseline="alphabetic">ISSUE LIFECYCLE</text><text x="164.9264678955078" y="76.536" font-family="Virgil, Segoe UI Emoji" font-size="36px" fill="#6741d9" text-anchor="middle" style="white-space: pre;" direction="ltr" dominant-baseline="alphabetic">- STATUS -</text></g></g><g clip-path="url(#eJEOeEG-XMzsKO-W1F3pm)"><g stroke-linecap="round"><g transform="translate(423.105650498052 221.37654253639994) rotate(0 0 98.28963001808847)"><path d="M0 0 C0.89 56.32, -1.3 112.24, 0 196.58 M0 0 C0.31 55.56, 0.69 110.88, 0 196.58" stroke="#1e1e1e" stroke-width="2" fill="none"></path></g></g><mask></mask></g><g clip-path="url(#eJEOeEG-XMzsKO-W1F3pm)"><g stroke-linecap="round"><g transform="translate(1437.2535384476091 90.0146643749913) rotate(0 71.99674450388193 -1.5238702328384761)"><path d="M0 0 C46.07 -2.41, 93.56 -3.41, 143.99 -3.05 M0 0 C34.74 -0.15, 71.3 -0.81, 143.99 -3.05" stroke="#c2255c" stroke-width="2" fill="none"></path></g><g transform="translate(1437.2535384476091 90.0146643749913) rotate(0 71.99674450388193 -1.5238702328384761)"><path d="M120.75 6.17 C127.15 2.58, 134.94 -0.44, 143.99 -3.05 M120.75 6.17 C125.95 3.58, 132.94 1.42, 143.99 -3.05" stroke="#c2255c" stroke-width="2" fill="none"></path></g><g transform="translate(1437.2535384476091 90.0146643749913) rotate(0 71.99674450388193 -1.5238702328384761)"><path d="M120.27 -10.92 C126.73 -8.89, 134.69 -6.3, 143.99 -3.05 M120.27 -10.92 C125.51 -9.32, 132.62 -7.3, 143.99 -3.05" stroke="#c2255c" stroke-width="2" fill="none"></path></g></g><mask></mask></g><g clip-path="url(#eJEOeEG-XMzsKO-W1F3pm)"><g transform="translate(1402.9542102132586 60.51338948538114) rotate(0 67.38235473632812 10)"><text x="0" y="14.016" font-family="Virgil, Segoe UI Emoji" font-size="16px" fill="#c2255c" text-anchor="start" style="white-space: pre;" direction="ltr" dominant-baseline="alphabetic">maintainer action</text></g></g><g clip-path="url(#eJEOeEG-XMzsKO-W1F3pm)"><g stroke-linecap="round"><g transform="translate(723.284309915382 119.31690107745908) rotate(0 28.95353442393298 -0.7619351164192949)"><path d="M-0.44 -0.64 C9.49 -1.06, 49.14 -1.54, 58.82 -1.82 M1.53 1.64 C11.45 1.34, 49.15 0.07, 58.35 -0.44" stroke="#f783ac" stroke-width="2" fill="none"></path></g><g transform="translate(723.284309915382 119.31690107745908) rotate(0 28.95353442393298 -0.7619351164192949)"><path d="M35.24 9.1 C39.55 8.47, 45.55 4.24, 58.35 -0.44 M35.24 9.1 C40.25 6.21, 45.79 4.87, 58.35 -0.44" stroke="#f783ac" stroke-width="2" fill="none"></path></g><g transform="translate(723.284309915382 119.31690107745908) rotate(0 28.95353442393298 -0.7619351164192949)"><path d="M34.52 -7.98 C39.09 -4.6, 45.27 -4.82, 58.35 -0.44 M34.52 -7.98 C39.75 -6.86, 45.47 -4.17, 58.35 -0.44" stroke="#f783ac" stroke-width="2" fill="none"></path></g></g><mask></mask></g><g clip-path="url(#eJEOeEG-XMzsKO-W1F3pm)"><g transform="translate(827.5301511179755 203.82880207072276) rotate(0 20.735294342041016 12.5)"><text x="0" y="17.52" font-family="Virgil, Segoe UI Emoji" font-size="20px" fill="#1e1e1e" text-anchor="start" style="white-space: pre;" direction="ltr" dominant-baseline="alphabetic">NEW</text></g></g><g clip-path="url(#eJEOeEG-XMzsKO-W1F3pm)"><g transform="translate(981.3817909919258 227.68685556330206) rotate(0 46.17647171020508 12.5)"><text x="0" y="17.52" font-family="Virgil, Segoe UI Emoji" font-size="20px" fill="#2f9e44" text-anchor="start" style="white-space: pre;" direction="ltr" dominant-baseline="alphabetic">PROCESS</text></g></g><g clip-path="url(#eJEOeEG-XMzsKO-W1F3pm)"><g transform="translate(598.7782583688481 303.4029625484595) rotate(0 47.764705657958984 12.5)"><text x="0" y="17.52" font-family="Virgil, Segoe UI Emoji" font-size="20px" fill="#2f9e44" text-anchor="start" style="white-space: pre;" direction="ltr" dominant-baseline="alphabetic">BACKLOG</text></g></g><g clip-path="url(#eJEOeEG-XMzsKO-W1F3pm)"><g transform="translate(930.5058393604982 253.06877928871836) rotate(0 47.764705657958984 12.5)"><text x="0" y="17.52" font-family="Virgil, Segoe UI Emoji" font-size="20px" fill="#2f9e44" text-anchor="start" style="white-space: pre;" direction="ltr" dominant-baseline="alphabetic">BACKLOG</text></g></g><g clip-path="url(#eJEOeEG-XMzsKO-W1F3pm)"><g transform="translate(1092.5271349719633 303.45070301413625) rotate(0 38.55882263183594 12.5)"><text x="0" y="17.52" font-family="Virgil, Segoe UI Emoji" font-size="20px" fill="#1971c2" text-anchor="start" style="white-space: pre;" direction="ltr" dominant-baseline="alphabetic">ACTIVE</text></g></g><g clip-path="url(#eJEOeEG-XMzsKO-W1F3pm)"><g transform="translate(1394.2259473493637 327.88036720523087) rotate(0 29.014705657958984 12.5)"><text x="0" y="17.52" font-family="Virgil, Segoe UI Emoji" font-size="20px" fill="#1971c2" text-anchor="start" style="white-space: pre;" direction="ltr" dominant-baseline="alphabetic">TEST</text></g></g><g clip-path="url(#eJEOeEG-XMzsKO-W1F3pm)"><g transform="translate(1484.2683479089915 352.7384206978095) rotate(0 38.5 12.5)"><text x="0" y="17.52" font-family="Virgil, Segoe UI Emoji" font-size="20px" fill="#1971c2" text-anchor="start" style="white-space: pre;" direction="ltr" dominant-baseline="alphabetic">REVIEW</text></g></g><g clip-path="url(#eJEOeEG-XMzsKO-W1F3pm)"><g transform="translate(600.2616351196111 402.5022681486439) rotate(0 45.85293960571289 12.5)"><text x="0" y="17.52" font-family="Virgil, Segoe UI Emoji" font-size="20px" fill="#f08c00" text-anchor="start" style="white-space: pre;" direction="ltr" dominant-baseline="alphabetic">CHANGES</text></g></g><g clip-path="url(#eJEOeEG-XMzsKO-W1F3pm)"><g transform="translate(975.6190067399425 402.5022681486439) rotate(0 45.367645263671875 12.5)"><text x="0" y="17.52" font-family="Virgil, Segoe UI Emoji" font-size="20px" fill="#2f9e44" text-anchor="start" style="white-space: pre;" direction="ltr" dominant-baseline="alphabetic">REBASE </text></g></g><g clip-path="url(#eJEOeEG-XMzsKO-W1F3pm)"><g transform="translate(1455.4177530907718 402.50226814864345) rotate(0 33.39706039428711 12.5)"><text x="0" y="17.52" font-family="Virgil, Segoe UI Emoji" font-size="20px" fill="#2f9e44" text-anchor="start" style="white-space: pre;" direction="ltr" dominant-baseline="alphabetic">DONE </text></g></g><g clip-path="url(#eJEOeEG-XMzsKO-W1F3pm)"><g transform="translate(860.4902860091424 428.31258117554535) rotate(0 59.39706039428711 12.5)"><text x="0" y="17.52" font-family="Virgil, Segoe UI Emoji" font-size="20px" fill="#f783ac" text-anchor="start" style="white-space: pre;" direction="ltr" dominant-baseline="alphabetic">CANCELLED</text></g></g><g clip-path="url(#eJEOeEG-XMzsKO-W1F3pm)"><g transform="translate(768.9755946796076 277.92683278129743) rotate(0 47.764705657958984 12.5)"><text x="0" y="17.52" font-family="Virgil, Segoe UI Emoji" font-size="20px" fill="#2f9e44" text-anchor="start" style="white-space: pre;" direction="ltr" dominant-baseline="alphabetic">BACKLOG</text></g></g></svg>
